<svg width="45" height="48" viewBox="0 0 45 48" fill="none" xmlns="http://www.w3.org/2000/svg">
<path fill-rule="evenodd" clip-rule="evenodd" d="M13.7279 0.080879C10.7017 0.500101 8.17951 2.81423 7.3774 5.90738C6.96081 7.51406 7.30823 9.78252 8.18337 11.1694C8.38781 11.4933 8.65472 11.9373 8.77662 12.1559L8.99806 12.5536L6.14712 12.5394C4.57907 12.5315 3.50017 12.5605 3.74963 12.6039L4.20318 12.6826L3.49303 12.775C2.22942 12.9392 0.98906 13.9586 0.64243 15.1178C0.460894 15.7249 0.449215 22.4981 0.628596 23.1656C0.782238 23.7373 1.50918 24.5755 2.12374 24.8896C2.35767 25.0093 2.8957 25.1573 3.31943 25.2186C3.7663 25.2834 7.53387 25.3312 12.2927 25.3325L20.4956 25.3347L20.4567 19.0862L20.4178 12.8376H22.5411H24.6646L24.662 19.0578L24.6594 25.2779H33.3673H42.0751L42.6678 25.0095C43.2864 24.7292 44.083 23.9651 44.3134 23.4309C44.4974 23.0043 44.5755 16.2961 44.4071 15.38C44.2613 14.5864 43.8546 13.9708 43.0884 13.3832C42.2538 12.7433 41.7786 12.6672 38.6167 12.6672C37.0888 12.6672 35.9663 12.648 36.1222 12.6246C36.3515 12.5902 36.3678 12.5682 36.2079 12.5097C36.0339 12.4461 36.0593 12.3692 36.4187 11.8707C37.8112 9.93896 38.1719 7.52815 37.4128 5.22686C36.7369 3.17744 34.9664 1.27061 33.0849 0.565313C30.9056 -0.251658 28.0246 -0.176221 26.1609 0.746749C24.9519 1.34536 23.6394 2.68221 23.0258 3.93988C22.7763 4.45113 22.5394 4.87285 22.4995 4.87717C22.4595 4.88137 22.3415 4.6713 22.2372 4.41023C21.9492 3.68903 20.9564 2.3148 20.3124 1.74572C19.5711 1.09099 18.138 0.381378 17.1295 0.16995C16.3994 0.0169164 14.5406 -0.0318224 13.7279 0.080879ZM14.6192 4.31139C13.3673 4.50725 12.1257 5.52668 11.7997 6.62631C11.3521 8.13619 11.7082 9.90817 12.6712 10.9638C13.8131 12.2158 15.089 12.5403 18.6036 12.4727L20.3044 12.44L20.2743 10.679C20.2377 8.55598 20.0971 7.41124 19.8013 6.83024C19.474 6.18743 17.978 4.69743 17.8195 4.85637C17.783 4.89284 17.7532 4.86455 17.7532 4.79343C17.7532 4.46805 15.6679 4.14745 14.6192 4.31139ZM28.551 4.31888C27.6633 4.44863 26.8291 4.91057 26.1001 5.67641C24.9562 6.87796 24.68 7.87148 24.6734 10.8089C24.6705 12.1196 24.6976 12.3695 24.8493 12.4278C24.9479 12.4658 26.0369 12.4968 27.2693 12.4968C29.1999 12.4968 29.5996 12.466 30.1563 12.274C31.184 11.9198 31.9153 11.4674 32.4497 10.8551C33.1364 10.0687 33.342 9.40942 33.3371 8.00917C33.3326 6.67823 33.1295 6.09916 32.4046 5.35081C31.8609 4.78946 31.2157 4.48566 30.2253 4.32468C29.4172 4.19323 29.411 4.19323 28.551 4.31888ZM16.9828 12.6946C17.4011 12.7163 18.1154 12.7165 18.5702 12.6948C19.0252 12.6732 18.7061 12.711 17.833 12.7109C16.9599 12.7106 16.5646 12.6728 16.9828 12.6946ZM9.61751 28.033L3.57954 28.0634V35.4983C3.57954 40.471 3.62093 43.1325 3.70439 43.5352C4.02822 45.0959 5.18411 46.6933 6.43117 47.3031C7.51868 47.8349 7.82336 47.8583 14.3232 47.91L20.4745 47.9589L20.4733 38.3794C20.4726 33.1107 20.4404 28.6082 20.4017 28.3738L20.3314 27.9478L17.9934 27.9752C16.7076 27.9903 12.9384 28.0163 9.61751 28.033ZM24.5947 31.2134C24.6359 32.9478 24.6696 37.4342 24.6696 41.1834L24.6698 48L30.7644 47.9346C37.6434 47.8607 37.7688 47.8467 39.0491 47.011C39.9087 46.45 40.4186 45.8522 40.8799 44.8646C41.4041 43.742 41.4622 42.686 41.4263 34.9348L41.3948 28.1182L32.9574 28.0891L24.52 28.0599L24.5947 31.2134Z" fill="#007AFF"/>
</svg>
